<svg width="98" height="32" viewBox="0 0 98 32" fill="none" xmlns="http://www.w3.org/2000/svg">
<path fill-rule="evenodd" clip-rule="evenodd" d="M12.7566 19.2432H0V12.7566C7.042 12.7566 12.7566 7.04053 12.7566 0H19.2447V12.7566H32.0013V19.2432C24.9593 19.2432 19.2447 24.9593 19.2447 31.9996H12.7566V19.2432Z" fill="#F1C115"/>
<path d="M39.0188 5.9608H46.8947V0.000488281H39.0188V5.9608ZM39.1057 31.3471H46.8077V8.36101H39.1057V31.3471Z" fill="#3D3D3D"/>
<path d="M61.1801 7.70801C54.2992 7.70801 49.3389 12.1894 49.3389 19.8106C49.3389 27.4319 54.2992 32.0002 61.1801 32.0002C68.0174 32.0002 72.978 27.4319 72.978 19.8106C72.978 12.1894 68.0174 7.70801 61.1801 7.70801ZM61.1801 14.321C64.0122 14.321 65.4938 17.0658 65.4938 19.8106C65.4938 22.5551 64.0122 25.3868 61.1801 25.3868C58.3044 25.3868 56.8231 22.5551 56.8231 19.8106C56.8231 17.0658 58.3044 14.321 61.1801 14.321Z" fill="#3D3D3D"/>
<path d="M83.0799 12.4542L82.3836 8.36105H75.3779V31.3471H83.0799V17.8048C83.0799 15.9322 84.5616 14.1905 86.5228 14.1905C88.484 14.1905 89.617 15.6275 89.617 17.6742V31.3471H97.3623V15.1922C97.3623 10.6689 95.0998 7.70801 90.966 7.70801C87.6121 7.70801 85.6513 9.75442 84.126 12.4542H83.0799Z" fill="#3D3D3D"/>
</svg>
