<svg width="122" height="31" viewBox="0 0 122 31" fill="none" xmlns="http://www.w3.org/2000/svg">
<path d="M1.84269 20.961L2.67291 22.8706C3.50314 24.7803 5.1636 28.5996 6.82405 28.0824C8.48451 27.5651 10.145 22.7113 11.8054 20.9325C13.4659 19.1538 15.1263 20.4501 16.7868 21.7475C18.4472 23.0448 20.1077 24.3431 21.7681 23.1631C23.4286 21.9831 25.0891 18.3247 26.7495 17.818C28.41 17.3114 30.0704 19.9566 31.7309 21.7901C33.3913 23.6235 35.0518 24.6452 36.7122 24.4839C38.3727 24.3225 40.0331 22.9781 41.6936 20.8905C43.3541 18.8029 45.0145 15.972 46.675 14.8339C48.3354 13.6957 49.9959 14.2502 51.6563 15.7023C53.3168 17.1544 54.9772 19.5042 56.6377 20.2779C58.2981 21.0515 59.9586 20.2491 61.6191 18.1218C63.2795 15.9946 64.94 12.5426 66.6004 11.6503C68.2609 10.758 69.9213 12.4255 71.5818 12.0253C73.2422 11.6251 74.9027 9.15731 76.5632 7.60053C78.2236 6.04375 79.8841 5.398 81.5445 7.09737C83.205 8.79674 84.8654 12.8412 86.5259 14.5443C88.1863 16.2474 89.8468 15.6091 91.5072 13.8081C93.1677 12.007 94.8281 9.04336 96.4886 8.56359C98.1491 8.08381 99.8095 10.0879 101.47 11.2496C103.13 12.4113 104.791 12.7304 106.451 12.4164C108.112 12.1023 109.772 11.1549 111.433 9.15204C113.093 7.14917 114.754 4.09079 116.414 2.82354C118.075 1.5563 119.735 2.0802 120.565 2.34215L121.395 2.6041" stroke="#5B53FF" stroke-width="4"/>
<path d="M1.84269 20.961L2.67291 22.8706C3.50314 24.7803 5.1636 28.5996 6.82405 28.0824C8.48451 27.5651 10.145 22.7113 11.8054 20.9325C13.4659 19.1538 15.1263 20.4501 16.7868 21.7475C18.4472 23.0448 20.1077 24.3431 21.7681 23.1631C23.4286 21.9831 25.0891 18.3247 26.7495 17.818C28.41 17.3114 30.0704 19.9566 31.7309 21.7901C33.3913 23.6235 35.0518 24.6452 36.7122 24.4839C38.3727 24.3225 40.0331 22.9781 41.6936 20.8905C43.3541 18.8029 45.0145 15.972 46.675 14.8339C48.3354 13.6957 49.9959 14.2502 51.6563 15.7023C53.3168 17.1544 54.9772 19.5042 56.6377 20.2779C58.2981 21.0515 59.9586 20.2491 61.6191 18.1218C63.2795 15.9946 64.94 12.5426 66.6004 11.6503C68.2609 10.758 69.9213 12.4255 71.5818 12.0253C73.2422 11.6251 74.9027 9.15731 76.5632 7.60053C78.2236 6.04375 79.8841 5.398 81.5445 7.09737C83.205 8.79674 84.8654 12.8412 86.5259 14.5443C88.1863 16.2474 89.8468 15.6091 91.5072 13.8081C93.1677 12.007 94.8281 9.04336 96.4886 8.56359C98.1491 8.08381 99.8095 10.0879 101.47 11.2496C103.13 12.4113 104.791 12.7304 106.451 12.4164C108.112 12.1023 109.772 11.1549 111.433 9.15204C113.093 7.14917 114.754 4.09079 116.414 2.82354C118.075 1.5563 119.735 2.0802 120.565 2.34215L121.395 2.6041" stroke="url(#paint0_linear_61_14694)" stroke-width="4"/>
<defs>
<linearGradient id="paint0_linear_61_14694" x1="1.84269" y1="15.0697" x2="121.395" y2="15.0697" gradientUnits="userSpaceOnUse">
<stop offset="0.0001" stop-color="white" stop-opacity="0.4"/>
<stop offset="0.0002" stop-color="white" stop-opacity="0.4"/>
<stop offset="1" stop-color="white" stop-opacity="0"/>
<stop offset="1" stop-color="white" stop-opacity="0"/>
</linearGradient>
</defs>
</svg>
