<svg width="122" height="35" viewBox="0 0 122 35" fill="none" xmlns="http://www.w3.org/2000/svg">
<path d="M1.87839 10.2753L2.7078 8.07406C3.53721 5.87278 5.19603 1.4702 6.85485 2.06645C8.51367 2.6627 10.1725 8.25776 11.8313 10.3081C13.4901 12.3585 15.1489 10.8642 16.8078 9.36873C18.4666 7.87328 20.1254 6.37668 21.7842 7.73692C23.443 9.09716 25.1018 13.3142 26.7607 13.8982C28.4195 14.4822 30.0783 11.4331 31.7371 9.31966C33.3959 7.20622 35.0548 6.02847 36.7136 6.21446C38.3724 6.40045 40.0312 7.95019 41.69 10.3566C43.3489 12.763 45.0077 16.0261 46.6665 17.3381C48.3253 18.6501 49.9841 18.011 51.6429 16.3371C53.3018 14.6632 54.9606 11.9546 56.6194 11.0628C58.2782 10.171 59.937 11.096 61.5959 13.5481C63.2547 16.0001 64.9135 19.9793 66.5723 21.0078C68.2311 22.0364 69.8899 20.1143 71.5488 20.5756C73.2076 21.0369 74.8664 23.8815 76.5252 25.676C78.184 27.4706 79.8429 28.2149 81.5017 26.256C83.1605 24.2972 84.8193 19.635 86.4781 17.6719C88.1369 15.7087 89.7958 16.4445 91.4546 18.5206C93.1134 20.5966 94.7722 24.0129 96.431 24.5659C98.0899 25.119 99.7487 22.8088 101.407 21.4697C103.066 20.1307 104.725 19.7628 106.384 20.1248C108.043 20.4869 109.702 21.5789 111.36 23.8876C113.019 26.1963 114.678 29.7218 116.337 31.1825C117.996 32.6433 119.655 32.0394 120.484 31.7374L121.313 31.4355" stroke="#EF4444" stroke-width="4"/>
<path d="M1.87839 10.2753L2.7078 8.07406C3.53721 5.87278 5.19603 1.4702 6.85485 2.06645C8.51367 2.6627 10.1725 8.25776 11.8313 10.3081C13.4901 12.3585 15.1489 10.8642 16.8078 9.36873C18.4666 7.87328 20.1254 6.37668 21.7842 7.73692C23.443 9.09716 25.1018 13.3142 26.7607 13.8982C28.4195 14.4822 30.0783 11.4331 31.7371 9.31966C33.3959 7.20622 35.0548 6.02847 36.7136 6.21446C38.3724 6.40045 40.0312 7.95019 41.69 10.3566C43.3489 12.763 45.0077 16.0261 46.6665 17.3381C48.3253 18.6501 49.9841 18.011 51.6429 16.3371C53.3018 14.6632 54.9606 11.9546 56.6194 11.0628C58.2782 10.171 59.937 11.096 61.5959 13.5481C63.2547 16.0001 64.9135 19.9793 66.5723 21.0078C68.2311 22.0364 69.8899 20.1143 71.5488 20.5756C73.2076 21.0369 74.8664 23.8815 76.5252 25.676C78.184 27.4706 79.8429 28.2149 81.5017 26.256C83.1605 24.2972 84.8193 19.635 86.4781 17.6719C88.1369 15.7087 89.7958 16.4445 91.4546 18.5206C93.1134 20.5966 94.7722 24.0129 96.431 24.5659C98.0899 25.119 99.7487 22.8088 101.407 21.4697C103.066 20.1307 104.725 19.7628 106.384 20.1248C108.043 20.4869 109.702 21.5789 111.36 23.8876C113.019 26.1963 114.678 29.7218 116.337 31.1825C117.996 32.6433 119.655 32.0394 120.484 31.7374L121.313 31.4355" stroke="url(#paint0_linear_61_14693)" stroke-width="4"/>
<defs>
<linearGradient id="paint0_linear_61_14693" x1="1.87839" y1="17.0663" x2="121.313" y2="17.0663" gradientUnits="userSpaceOnUse">
<stop stop-color="white" stop-opacity="0.4"/>
<stop offset="1" stop-color="white" stop-opacity="0"/>
</linearGradient>
</defs>
</svg>
