<svg width="122" height="35" viewBox="0 0 122 35" fill="none" xmlns="http://www.w3.org/2000/svg">
<path d="M1.87842 10.2751L2.70783 8.07381C3.53724 5.87253 5.19606 1.46996 6.85487 2.0662C8.51369 2.66245 10.1725 8.25751 11.8313 10.3079C13.4901 12.3583 15.149 10.8639 16.8078 9.36848C18.4666 7.87303 20.1254 6.37643 21.7842 7.73667C23.4431 9.09691 25.1019 13.314 26.7607 13.898C28.4195 14.482 30.0783 11.4328 31.7371 9.31941C33.396 7.20597 35.0548 6.02822 36.7136 6.21421C38.3724 6.4002 40.0312 7.94994 41.69 10.3564C43.3489 12.7628 45.0077 16.0259 46.6665 17.3379C48.3253 18.6498 49.9841 18.0107 51.6429 16.3368C53.3018 14.6629 54.9606 11.9543 56.6194 11.0625C58.2782 10.1707 59.937 11.0957 61.5959 13.5478C63.2547 15.9999 64.9135 19.979 66.5723 21.0076C68.2311 22.0361 69.8899 20.114 71.5488 20.5753C73.2076 21.0366 74.8664 23.8813 76.5252 25.6758C78.184 27.4703 79.8428 28.2147 81.5017 26.2558C83.1605 24.2969 84.8193 19.6348 86.4781 17.6716C88.1369 15.7085 89.7958 16.4443 91.4546 18.5203C93.1134 20.5964 94.7722 24.0126 96.431 24.5657C98.0898 25.1187 99.7487 22.8085 101.407 21.4695C103.066 20.1304 104.725 19.7625 106.384 20.1245C108.043 20.4866 109.702 21.5786 111.36 23.8874C113.019 26.1961 114.678 29.7215 116.337 31.1823C117.996 32.643 119.654 32.0391 120.484 31.7372L121.313 31.4352" stroke="#EF4444" stroke-width="4"/>
<path d="M1.87842 10.2751L2.70783 8.07381C3.53724 5.87253 5.19606 1.46996 6.85487 2.0662C8.51369 2.66245 10.1725 8.25751 11.8313 10.3079C13.4901 12.3583 15.149 10.8639 16.8078 9.36848C18.4666 7.87303 20.1254 6.37643 21.7842 7.73667C23.4431 9.09691 25.1019 13.314 26.7607 13.898C28.4195 14.482 30.0783 11.4328 31.7371 9.31941C33.396 7.20597 35.0548 6.02822 36.7136 6.21421C38.3724 6.4002 40.0312 7.94994 41.69 10.3564C43.3489 12.7628 45.0077 16.0259 46.6665 17.3379C48.3253 18.6498 49.9841 18.0107 51.6429 16.3368C53.3018 14.6629 54.9606 11.9543 56.6194 11.0625C58.2782 10.1707 59.937 11.0957 61.5959 13.5478C63.2547 15.9999 64.9135 19.979 66.5723 21.0076C68.2311 22.0361 69.8899 20.114 71.5488 20.5753C73.2076 21.0366 74.8664 23.8813 76.5252 25.6758C78.184 27.4703 79.8428 28.2147 81.5017 26.2558C83.1605 24.2969 84.8193 19.6348 86.4781 17.6716C88.1369 15.7085 89.7958 16.4443 91.4546 18.5203C93.1134 20.5964 94.7722 24.0126 96.431 24.5657C98.0898 25.1187 99.7487 22.8085 101.407 21.4695C103.066 20.1304 104.725 19.7625 106.384 20.1245C108.043 20.4866 109.702 21.5786 111.36 23.8874C113.019 26.1961 114.678 29.7215 116.337 31.1823C117.996 32.643 119.654 32.0391 120.484 31.7372L121.313 31.4352" stroke="url(#paint0_linear_0_142)" stroke-width="4"/>
<defs>
<linearGradient id="paint0_linear_0_142" x1="1.87842" y1="17.066" x2="121.313" y2="17.066" gradientUnits="userSpaceOnUse">
<stop stop-color="white" stop-opacity="0.4"/>
<stop offset="1" stop-color="white" stop-opacity="0"/>
</linearGradient>
</defs>
</svg>
